<svg xmlns="http://www.w3.org/2000/svg" viewBox="0 0 1200 700" fill="none">
<defs>
  <radialGradient id="bg" cx="55%" cy="45%" r="75%"><stop stop-color="#173650"/><stop offset=".55" stop-color="#091523"/><stop offset="1" stop-color="#040810"/></radialGradient>
  <linearGradient id="aurora" x1="0" y1="0" x2="1" y2="1"><stop stop-color="#48E7FF"/><stop offset=".5" stop-color="#7B6CFF"/><stop offset="1" stop-color="#FFD36A"/></linearGradient>
  <filter id="glow"><feGaussianBlur stdDeviation="9" result="b"/><feMerge><feMergeNode in="b"/><feMergeNode in="SourceGraphic"/></feMerge></filter>
</defs>
<rect width="1200" height="700" fill="url(#bg)"/>
<g opacity=".16" stroke="#48E7FF">
  <path d="M0 110H1200M0 230H1200M0 350H1200M0 470H1200M0 590H1200"/>
  <path d="M100 0V700M300 0V700M500 0V700M700 0V700M900 0V700M1100 0V700"/>
</g>
<g opacity=".22" stroke="#8B7CFF"><ellipse cx="600" cy="350" rx="410" ry="150" transform="rotate(-18 600 350)"/><ellipse cx="600" cy="350" rx="270" ry="105" transform="rotate(31 600 350)"/></g>
<path d="M100 530C230 420 280 455 370 375C460 295 500 345 585 250C680 145 760 250 850 185C940 120 1030 175 1110 90" stroke="url(#aurora)" stroke-width="4" opacity=".65" filter="url(#glow)"/>
<g fill="#48E7FF" filter="url(#glow)">
 <circle cx="370" cy="375" r="7"/><circle cx="585" cy="250" r="9"/><circle cx="850" cy="185" r="7"/>
</g>
<g stroke="#FFD36A" opacity=".65"><path d="M585 210V290M545 250H625"/><circle cx="585" cy="250" r="28"/></g>
<g fill="#D8F8FF" opacity=".75"><circle cx="150" cy="150" r="2"/><circle cx="220" cy="80" r="2"/><circle cx="980" cy="330" r="2"/><circle cx="1080" cy="520" r="2"/><circle cx="740" cy="590" r="2"/></g>
<text x="70" y="625" fill="#9DB2C6" font-family="monospace" font-size="14" letter-spacing="5">GRID WORLD · FIRST LIGHT · LIVE WORLD SIGNAL</text>
</svg>