<svg xmlns="http://www.w3.org/2000/svg" viewBox="0 0 1800 900" fill="none"><defs><linearGradient id="sky" x2="0" y2="1"><stop stop-color="#061327"/><stop offset=".5" stop-color="#253b5b"/><stop offset="1" stop-color="#071827"/></linearGradient><linearGradient id="water" x2="0" y2="1"><stop stop-color="#42eaff" stop-opacity=".6"/><stop offset="1" stop-color="#061327"/></linearGradient><linearGradient id="glass" x2="1" y2="1"><stop stop-color="#d6faff"/><stop offset=".4" stop-color="#d9c4ff"/><stop offset="1" stop-color="#5b52d9"/></linearGradient><radialGradient id="planet"><stop stop-color="#c2eaff"/><stop offset=".65" stop-color="#6c8fc5"/><stop offset="1" stop-color="#4b3d82"/></radialGradient><filter id="glow"><feGaussianBlur stdDeviation="16"/></filter></defs><rect width="1800" height="900" fill="url(#sky)"/><circle cx="1240" cy="230" r="185" fill="#79bfff" opacity=".16" filter="url(#glow)"/><circle cx="1240" cy="230" r="135" fill="url(#planet)"/><ellipse cx="1240" cy="230" rx="240" ry="52" stroke="#9befff" stroke-width="10" opacity=".55" transform="rotate(-16 1240 230)"/><g fill="#b9f7ff" opacity=".8"><circle cx="140" cy="100" r="2"/><circle cx="360" cy="180" r="2"/><circle cx="780" cy="80" r="3"/><circle cx="950" cy="250" r="2"/><circle cx="1580" cy="80" r="2"/><circle cx="1680" cy="360" r="3"/><circle cx="610" cy="280" r="2"/><circle cx="290" cy="360" r="2"/></g><path d="M0 570 160 460 290 540 460 380 630 550 800 410 960 560 1100 400 1290 570 1460 430 1640 540 1800 450V900H0Z" fill="#142f50"/><path d="M0 650 200 540 370 610 560 470 720 630 930 510 1100 640 1320 500 1520 620 1700 520 1800 580V900H0Z" fill="#0b2038"/><g fill="url(#glass)" stroke="#8fefff" stroke-opacity=".65"><path d="M230 530 265 330 300 530Z"/><path d="M300 540 350 260 405 540Z"/><path d="M380 560 420 390 462 560Z"/><path d="M1040 570 1085 300 1130 570Z"/><path d="M1120 570 1180 350 1240 570Z"/><path d="M1430 580 1480 280 1530 580Z"/><path d="M1510 600 1570 390 1630 600Z"/></g><g stroke="#6deaff" stroke-width="3" opacity=".8"><path d="M265 355v175M350 295v240M420 420v140M1085 330v240M1180 380v190M1480 310v270M1570 420v180"/></g><path d="M0 700Q260 660 480 720T930 710T1400 730T1800 690V900H0Z" fill="url(#water)"/><g stroke="#63eaff" stroke-width="2" opacity=".5"><path d="M80 750h500M180 790h650M950 760h500M1250 820h430M350 850h300"/></g><path d="M0 0H1800V900H0Z" stroke="#5deaff" stroke-opacity=".25" stroke-width="3"/><text x="70" y="90" fill="#92efff" font-family="monospace" font-size="20" letter-spacing="8">CIVIC / ARCHITECTURE</text><text x="70" y="130" fill="#d9f9ff" font-family="monospace" font-size="13" letter-spacing="5">CONCEPT ART · VISUAL PLACEHOLDER</text></svg>