<svg xmlns="http://www.w3.org/2000/svg" viewBox="0 0 1400 600"><defs><linearGradient id="b" y2="1"><stop stop-color="#071b2b"/><stop offset=".55" stop-color="#06101c"/><stop offset="1" stop-color="#01060c"/></linearGradient><radialGradient id="c"><stop stop-color="#6beaff" stop-opacity=".65"/><stop offset="1" stop-color="#6beaff" stop-opacity="0"/></radialGradient></defs><rect width="1400" height="600" fill="url(#b)"/><circle cx="700" cy="260" r="250" fill="url(#c)" opacity=".25"/><g fill="none" stroke="#3fdfff" opacity=".55"><ellipse cx="700" cy="330" rx="470" ry="95"/><ellipse cx="700" cy="330" rx="360" ry="68"/><ellipse cx="700" cy="330" rx="240" ry="43"/></g><g stroke="#58e7ff" opacity=".28"><path d="M230 0V600M350 0V600M470 0V600M590 0V600M710 0V600M830 0V600M950 0V600M1070 0V600M1190 0V600"/><path d="M0 100H1400M0 200H1400M0 300H1400M0 400H1400M0 500H1400"/></g><g fill="#7deaff"><rect x="675" y="205" width="50" height="180" rx="6"/><rect x="645" y="240" width="110" height="24" rx="5"/><rect x="625" y="300" width="150" height="20" rx="5"/><rect x="605" y="350" width="190" height="18" rx="5"/></g><g fill="#06111d" stroke="#6feaff"><circle cx="220" cy="330" r="10"/><circle cx="370" cy="220" r="8"/><circle cx="1030" cy="220" r="8"/><circle cx="1180" cy="330" r="10"/></g><g stroke="#6feaff" opacity=".7"><path d="M220 330L605 350M370 220L625 300M1030 220L775 300M1180 330L795 350"/></g><g fill="#40dfff" opacity=".6" font-family="monospace" font-size="14"><text x="60" y="90">GRID FOUNDATION // CORE INFRASTRUCTURE</text><text x="60" y="115">WEATHER · SYSTEM NODES · WORLD LINKS · ACCESS CONTROL</text><text x="1040" y="530">AUTHORIZED LAYER</text></g></svg>